<?xml version="1.0"?>
<svg xmlns="http://www.w3.org/2000/svg" class="logo_simplon" data-name="Calque 1" viewBox="0 0 460.91 157.34">
  <defs>
    <style>.cls-1{fill:#ce0033;}</style>
  </defs>
  <title>o de logo_simplon</title>
  <path class="cls-1" d="M365.64,13.25a43.09,43.09,0,0,1,13.22,31.54,43.14,43.14,0,0,1-13.22,31.64,46,46,0,0,1-64.54,0,43.14,43.14,0,0,1-13.22-31.64A43.09,43.09,0,0,1,301.1,13.25a45.92,45.92,0,0,1,64.54,0ZM333.34,9.6a33,33,0,0,0-24.19,10.24,34,34,0,0,0-10.21,25,34,34,0,0,0,10.21,25,33.83,33.83,0,0,0,48.44,0,34,34,0,0,0,10.21-25,34,34,0,0,0-10.21-24.95A33.11,33.11,0,0,0,333.34,9.6Z"/>
  <path class="cls-1" d="M339.41,27.41H326.06V40.76h13.35Zm0,23.82H326.06V64.58h13.35Z"/>
  </svg>
